<svg width="179" height="48" viewBox="0 0 179 48" fill="none" xmlns="http://www.w3.org/2000/svg">
<path d="M24.017 0.698502C24.8738 1.34308 25.3498 2.22154 25.4449 3.33388L25.4598 3.32535L25.4598 3.58634C25.4618 3.64419 25.4627 3.70264 25.4627 3.76168L25.4598 3.76327L25.4598 26.3406C25.4799 27.5183 25.92 28.4509 26.7801 29.1384C28.0695 30.0593 29.4139 30.1449 30.8135 29.3952L12.5113 39.9367C11.1527 40.6365 9.85323 40.5758 8.61288 39.7546C7.75791 39.1114 7.28214 38.2353 7.18557 37.1264L7.16712 37.137L7.16717 14.009C7.12369 12.88 6.68454 11.9819 5.84974 11.3147C5.43786 11.0205 5.02036 10.8116 4.59724 10.6879C3.99626 10.5288 3.99626 9.77918 4.43927 9.54722C5.44881 8.96575 10.6752 5.95547 20.1185 0.516373C21.4771 -0.183391 22.7766 -0.122681 24.017 0.698502Z" fill="#9DE8FF"/>
<path d="M25.4598 26.3374C25.447 24.0636 23.5911 20.7577 19.8314 20.7577C18.7866 20.7577 17.8128 21.0307 16.9099 21.5767L33.6896 11.9147C34.5214 11.4314 35.4888 11.1545 36.5212 11.1545C39.6172 11.1545 42.1293 13.6445 42.1496 16.7237C42.1496 16.7243 42.1496 16.7368 42.1496 16.7613L42.1497 33.8158C42.17 34.9931 42.6101 35.9254 43.47 36.6127C43.8866 36.9103 44.309 37.1206 44.7372 37.2438C45.3544 37.444 45.2835 38.1657 44.8833 38.3786C42.5513 39.7218 37.8582 42.4295 30.8041 46.5017C29.4455 47.2015 28.146 47.1407 26.9057 46.3196C26.0485 45.6748 25.5725 44.7959 25.4776 43.683L25.4599 43.6932V39.4754C25.4599 35.0929 25.4599 26.3427 25.4598 26.3374Z" fill="#106BF3"/>
<path d="M19.8313 20.7577C22.9398 20.7577 25.4598 23.2679 25.4598 26.3644C25.4598 29.4726 25.4598 31.5116 25.4598 32.4815C25.4598 32.4815 15.7752 38.0556 14.3716 38.8635C14.2619 38.9266 12.4489 39.9673 12.4489 39.9673C14.0591 38.9266 14.2028 37.5306 14.2028 36.9107C14.2028 35.1133 14.2028 31.5978 14.2028 26.3644C14.2028 23.2679 16.7227 20.7577 19.8313 20.7577Z" fill="#57AAF9"/>
<path d="M62.2372 34H65.3096V25.1207H75.4616V34H78.544V13.6364H75.4616V22.4858H65.3096V13.6364H62.2372V34Z" fill="black"/>
<path d="M89.3622 34.3082C92.6931 34.3082 95.0497 32.6676 95.7258 30.1818L92.9119 29.6747C92.375 31.1165 91.0824 31.8523 89.392 31.8523C86.8466 31.8523 85.1363 30.2017 85.0568 27.2585H95.9147V26.2045C95.9147 20.6861 92.6136 18.5284 89.1534 18.5284C84.8977 18.5284 82.0937 21.7699 82.0937 26.4631C82.0937 31.206 84.8579 34.3082 89.3622 34.3082ZM85.0667 25.0312C85.186 22.8636 86.7571 20.9844 89.1733 20.9844C91.4801 20.9844 92.9914 22.6946 93.0014 25.0312H85.0667Z" fill="black"/>
<path d="M100.628 39.7273C103.084 39.7273 104.635 38.4446 105.52 36.0383L111.834 18.7571L108.622 18.7273L104.754 30.5795H104.595L100.727 18.7273H97.5454L103.133 34.1989L102.766 35.2131C102.01 37.2415 100.946 37.4105 99.3153 36.9631L98.5994 39.3991C98.9574 39.5582 99.7329 39.7273 100.628 39.7273Z" fill="black"/>
<path d="M114.874 34H117.946V25.1207H126.597V22.4858H117.946V16.2812H127.502V13.6364H114.874V34Z" fill="black"/>
<path d="M136.354 34.3082C140.659 34.3082 143.473 31.1562 143.473 26.4332C143.473 21.6804 140.659 18.5284 136.354 18.5284C132.048 18.5284 129.234 21.6804 129.234 26.4332C129.234 31.1562 132.048 34.3082 136.354 34.3082ZM136.364 31.8125C133.55 31.8125 132.237 29.3565 132.237 26.4233C132.237 23.5 133.55 21.0142 136.364 21.0142C139.158 21.0142 140.47 23.5 140.47 26.4233C140.47 29.3565 139.158 31.8125 136.364 31.8125Z" fill="black"/>
<path d="M146.792 34H149.765V24.6733C149.765 22.6747 151.306 21.2329 153.414 21.2329C154.03 21.2329 154.726 21.3423 154.965 21.4119V18.5682C154.667 18.5284 154.08 18.4986 153.702 18.4986C151.912 18.4986 150.381 19.5128 149.824 21.1534H149.665V18.7273H146.792V34Z" fill="black"/>
<path d="M157.538 34H160.511V24.5838C160.511 22.5256 161.952 21.0937 163.643 21.0937C165.293 21.0937 166.437 22.1875 166.437 23.848V34H169.4V24.2656C169.4 22.4261 170.523 21.0937 172.462 21.0937C174.033 21.0937 175.326 21.9687 175.326 24.0369V34H178.299V23.7585C178.299 20.2685 176.35 18.5284 173.586 18.5284C171.388 18.5284 169.738 19.5824 169.002 21.2131H168.843C168.177 19.5426 166.775 18.5284 164.736 18.5284C162.718 18.5284 161.217 19.5327 160.58 21.2131H160.391V18.7273H157.538V34Z" fill="black"/>
</svg>
