<svg width="24" height="24" viewBox="0 0 24 24" fill="none" xmlns="http://www.w3.org/2000/svg">

    <path d="M9 11C9 11.7956 9.31607 12.5587 9.87868 13.1213C10.4413 13.6839 11.2044 14 12 14C12.7956 14 13.5587 13.6839 14.1213 13.1213C14.6839 12.5587 15 11.7956 15 11C15 10.2044 14.6839 9.44129 14.1213 8.87868C13.5587 8.31607 12.7956 8 12 8C11.2044 8 10.4413 8.31607 9.87868 8.87868C9.31607 9.44129 9 10.2044 9 11Z"
          stroke="currentColor" stroke-width="2" stroke-linecap="round" stroke-linejoin="round"/>
    <path d="M17.657 16.657L13.414 20.9C13.039 21.2746 12.5306 21.485 12.0005 21.485C11.4704 21.485 10.962 21.2746 10.587 20.9L6.343 16.657C5.22422 15.5381 4.46234 14.1127 4.15369 12.5608C3.84504 11.009 4.00349 9.40047 4.60901 7.93868C5.21452 6.4769 6.2399 5.22749 7.55548 4.34846C8.87107 3.46943 10.4178 3.00024 12 3.00024C13.5822 3.00024 15.1289 3.46943 16.4445 4.34846C17.7601 5.22749 18.7855 6.4769 19.391 7.93868C19.9965 9.40047 20.155 11.009 19.8463 12.5608C19.5377 14.1127 18.7758 15.5381 17.657 16.657Z"
          stroke="currentColor" stroke-width="2" stroke-linecap="round" stroke-linejoin="round"/>

</svg>
