<svg width="16" height="18" viewBox="0 0 16 18" fill="none" xmlns="http://www.w3.org/2000/svg">
    <path fill-rule="evenodd" clip-rule="evenodd"
          d="M10.4139 2.87361C11.0701 2.11311 11.5124 1.05389 11.3913 0C10.4457 0.0360003 9.30177 0.604038 8.62376 1.36364C8.01491 2.03773 7.48342 3.11484 7.6263 4.14804C8.68109 4.22633 9.75772 3.635 10.4139 2.87361ZM12.7792 9.56259C12.8056 12.2869 15.2728 13.1931 15.3001 13.2048C15.2801 13.2687 14.9061 14.4961 14.0005 15.7651C13.217 16.8613 12.4042 17.953 11.1238 17.9764C9.86602 17.9989 9.46104 17.2619 8.02219 17.2619C6.58426 17.2619 6.13468 17.9529 4.94428 17.9988C3.70839 18.0429 2.76645 16.8129 1.97741 15.7203C0.362915 13.4856 -0.870249 9.40517 0.786106 6.65118C1.60882 5.28409 3.07861 4.41705 4.6749 4.39545C5.88804 4.37295 7.03384 5.17768 7.77556 5.17768C8.51728 5.17768 9.90971 4.21018 11.3731 4.35238C11.9856 4.37668 13.7057 4.58901 14.8096 6.1379C14.7204 6.191 12.7574 7.2856 12.7792 9.56259Z"
          fill="black"></path>
</svg>