<svg viewBox="0 0 219 200" fill="none" xmlns="http://www.w3.org/2000/svg">
    <rect y="12.9384" width="218.238" height="187.062" fill="white"></rect>
    <rect x="20.4209" y="41.933" width="115.822" height="8.72954" fill="#D9D9D9"></rect>
    <rect x="20.4209" y="61.5745" width="65.4715" height="3.42946" fill="#D9D9D9"></rect>
    <rect x="20.4209" y="68.901" width="183.32" height="3.42946" fill="#D9D9D9"></rect>
    <rect x="20.4209" y="75.9158" width="183.32" height="3.42946" fill="#D9D9D9"></rect>
    <rect x="20.1091" y="92.4396" width="103.663" height="58.9244" rx="8" fill="#BFDBFE"></rect>
    <rect x="20.4209" y="166.329" width="65.4715" height="3.42946" fill="#D9D9D9"></rect>
    <rect x="20.4209" y="173.656" width="183.32" height="3.42946" fill="#D9D9D9"></rect>
    <path d="M4 0.5H214.238C216.171 0.5 217.738 2.06701 217.738 4V12.4384H0.5V4C0.5 2.06701 2.067 0.5 4 0.5Z"
          fill="#F4F4F4" stroke="#F2F2F2"></path>
    <rect x="5.61185" y="4.20886" width="4.36477" height="4.36477" rx="2.18238" fill="#D8D8D8"></rect>
    <rect x="14.6532" y="4.20886" width="4.36477" height="4.36477" rx="2.18238" fill="#D8D8D8"></rect>
    <rect x="23.6945" y="4.20886" width="4.36477" height="4.36477" rx="2.18238" fill="#D8D8D8"></rect>
</svg>