<svg viewBox="0 0 219 200" fill="none" xmlns="http://www.w3.org/2000/svg">
    <g clip-path="url(#clip0_3044_2)">
        <path d="M0 12.9384H218.238V200H0V12.9384Z" fill="white"></path>
        <path d="M20.4208 41.933H136.243V50.6625H20.4208V41.933Z" fill="#D9D9D9"></path>
        <path d="M20.4208 61.5745H85.8923V65.0039H20.4208V61.5745Z" fill="#D9D9D9"></path>
        <path d="M20.4208 68.901H203.741V72.3305H20.4208V68.901Z" fill="#D9D9D9"></path>
        <path d="M20.4208 75.9158H203.741V79.3453H20.4208V75.9158Z" fill="#D9D9D9"></path>
        <path d="M20.4208 93.3749H85.8924V96.8044H20.4208V93.3749Z" fill="#D9D9D9"></path>
        <path d="M20.4208 104.754H203.741V108.184H20.4208V104.754Z" fill="#D9D9D9"></path>
        <path d="M0 4C0 1.79086 1.79086 0 4 0H214.238C216.448 0 218.238 1.79086 218.238 4V12.9384H0V4Z"
              fill="#F4F4F4"></path>
        <path d="M5.61181 6.39124C5.61181 5.18594 6.5889 4.20886 7.79419 4.20886C8.99949 4.20886 9.97658 5.18594 9.97658 6.39124C9.97658 7.59654 8.99949 8.57363 7.79419 8.57363C6.5889 8.57363 5.61181 7.59654 5.61181 6.39124Z"
              fill="#D8D8D8"></path>
        <path d="M14.6532 6.39124C14.6532 5.18594 15.6303 4.20886 16.8356 4.20886C18.0409 4.20886 19.0179 5.18594 19.0179 6.39124C19.0179 7.59654 18.0409 8.57363 16.8356 8.57363C15.6303 8.57363 14.6532 7.59654 14.6532 6.39124Z"
              fill="#D8D8D8"></path>
        <path d="M23.6944 6.39124C23.6944 5.18594 24.6715 4.20886 25.8768 4.20886C27.0821 4.20886 28.0592 5.18594 28.0592 6.39124C28.0592 7.59654 27.0821 8.57363 25.8768 8.57363C24.6715 8.57363 23.6944 7.59654 23.6944 6.39124Z"
              fill="#D8D8D8"></path>
        <g filter="url(#filter0_d_3044_2)">
            <path d="M178.8 172.253C178.8 165.365 184.383 159.782 191.27 159.782C198.158 159.782 203.741 165.365 203.741 172.253C203.741 179.14 198.158 184.723 191.27 184.723C184.383 184.723 178.8 179.14 178.8 172.253Z"
                  fill="#BFDBFE"></path>
            <path d="M126.734 53.3624C126.734 48.9441 130.316 45.3624 134.734 45.3624H195.741C200.159 45.3624 203.741 48.9441 203.741 53.3624V141.026C203.741 145.444 200.159 149.026 195.741 149.026H134.734C130.316 149.026 126.734 145.444 126.734 141.026V53.3624Z"
                  fill="#BFDBFE"></path>
        </g>
    </g>
    <defs>
        <filter id="filter0_d_3044_2" x="66.7341" y="-14.6376" width="197.007" height="259.361"
                filterUnits="userSpaceOnUse" color-interpolation-filters="sRGB">
            <feFlood flood-opacity="0" result="BackgroundImageFix"></feFlood>
            <feColorMatrix in="SourceAlpha" type="matrix" values="0 0 0 0 0 0 0 0 0 0 0 0 0 0 0 0 0 0 127 0"
                           result="hardAlpha"></feColorMatrix>
            <feOffset></feOffset>
            <feGaussianBlur stdDeviation="30"></feGaussianBlur>
            <feComposite in2="hardAlpha" operator="out"></feComposite>
            <feColorMatrix type="matrix" values="0 0 0 0 0 0 0 0 0 0 0 0 0 0 0 0 0 0 0.25 0"></feColorMatrix>
            <feBlend mode="normal" in2="BackgroundImageFix" result="effect1_dropShadow_3044_2"></feBlend>
            <feBlend mode="normal" in="SourceGraphic" in2="effect1_dropShadow_3044_2" result="shape"></feBlend>
        </filter>
        <clipPath id="clip0_3044_2">
            <rect width="218.24" height="200" fill="white"></rect>
        </clipPath>
    </defs>
</svg>