<svg width="24" height="24" viewBox="0 0 24 24" fill="none" xmlns="http://www.w3.org/2000/svg">

    <path d="M20 6V18C20 18.5304 19.7893 19.0391 19.4142 19.4142C19.0391 19.7893 18.5304 20 18 20H8C7.46957 20 6.96086 19.7893 6.58579 19.4142C6.21071 19.0391 6 18.5304 6 18V6C6 5.46957 6.21071 4.96086 6.58579 4.58579C6.96086 4.21071 7.46957 4 8 4H18C18.5304 4 19.0391 4.21071 19.4142 4.58579C19.7893 4.96086 20 5.46957 20 6Z"
          stroke="currentColor" stroke-width="2" stroke-linecap="round" stroke-linejoin="round"/>
    <path d="M10 16H16" stroke="currentColor" stroke-width="2" stroke-linecap="round" stroke-linejoin="round"/>
    <path d="M11 11C11 11.5304 11.2107 12.0391 11.5858 12.4142C11.9609 12.7893 12.4696 13 13 13C13.5304 13 14.0391 12.7893 14.4142 12.4142C14.7893 12.0391 15 11.5304 15 11C15 10.4696 14.7893 9.96086 14.4142 9.58579C14.0391 9.21071 13.5304 9 13 9C12.4696 9 11.9609 9.21071 11.5858 9.58579C11.2107 9.96086 11 10.4696 11 11Z"
          stroke="currentColor" stroke-width="2" stroke-linecap="round" stroke-linejoin="round"/>
    <path d="M4 8H7" stroke="currentColor" stroke-width="2" stroke-linecap="round" stroke-linejoin="round"/>
    <path d="M4 12H7" stroke="currentColor" stroke-width="2" stroke-linecap="round" stroke-linejoin="round"/>
    <path d="M4 16H7" stroke="currentColor" stroke-width="2" stroke-linecap="round" stroke-linejoin="round"/>

</svg>
