<svg width="25" height="24" viewBox="0 0 25 24" fill="none" xmlns="http://www.w3.org/2000/svg">
    <path d="M24.0593 12.2878C24.0593 11.4774 23.9809 10.6408 23.8501 9.85648H12.5301V14.4838H19.0136C18.7522 15.974 17.8895 17.2812 16.6084 18.1178L20.4777 21.1242C22.7521 19.0066 24.0593 15.9217 24.0593 12.2878Z"
          fill="#4280EF"></path>
    <path d="M12.5301 24C15.7719 24 18.4908 22.9281 20.4777 21.0981L16.6084 18.1178C15.5366 18.8498 14.151 19.2681 12.5301 19.2681C9.3929 19.2681 6.75242 17.1505 5.78512 14.327L1.81134 17.3857C3.85052 21.438 7.98116 24 12.5301 24Z"
          fill="#34A353"></path>
    <path d="M5.78513 14.3008C5.28841 12.8107 5.28841 11.1898 5.78513 9.69962L1.81135 6.61471C0.112037 10.0133 0.112037 14.0133 1.81135 17.3857L5.78513 14.3008Z"
          fill="#F6B704"></path>
    <path d="M12.5301 4.75854C14.2294 4.73239 15.9026 5.38598 17.1313 6.56242L20.5561 3.11151C18.3862 1.07233 15.5104 -0.025687 12.5301 0.000456276C7.98116 0.000456276 3.85052 2.5625 1.81134 6.61471L5.78512 9.69962C6.75242 6.85 9.3929 4.75854 12.5301 4.75854Z"
          fill="#E54335"></path>
</svg>