<svg width="24" height="24" viewBox="0 0 24 24" fill="none" xmlns="http://www.w3.org/2000/svg">
    <path fill-rule="evenodd" clip-rule="evenodd" d="M9.42665 4.55805C5.66135 6.97621 3.56957 9.79066 3.15128 13.0015C2.50011 18.0001 6.9702 20.4467 9.23515 18.2484C11.5001 16.0502 10.1424 13.2599 8.50235 12.4972C6.8623 11.7344 5.85935 12.0001 6.0343 10.9809C6.20925 9.96161 8.54255 7.13571 10.5925 5.81966C10.7285 5.70401 10.7802 5.47961 10.6493 5.30941C10.5631 5.19741 10.3942 4.97784 10.1424 4.65063C9.92225 4.3645 9.71135 4.3752 9.42665 4.55805Z" fill="currentColor"/>
    <path fill-rule="evenodd" clip-rule="evenodd" d="M19.3395 4.55805C15.5742 6.97621 13.4824 9.79066 13.0641 13.0015C12.413 18.0001 16.8831 20.4467 19.148 18.2484C21.413 16.0502 20.0553 13.2599 18.4152 12.4972C16.7752 11.7344 15.7722 12.0001 15.9472 10.9809C16.1221 9.96161 18.4554 7.13571 20.5053 5.81966C20.6413 5.70401 20.6931 5.47961 20.5621 5.30941C20.476 5.19741 20.307 4.97784 20.0553 4.65063C19.8351 4.3645 19.6242 4.3752 19.3395 4.55805Z" fill="currentColor"/>
</svg>
