<svg width="24" height="24" viewBox="0 0 24 24" fill="none" xmlns="http://www.w3.org/2000/svg">
<path d="M5.76655 4.44501C6.01234 3.95043 5.81065 3.35025 5.31607 3.10447C4.82149 2.85868 4.22131 3.06037 3.97552 3.55495L5.76655 4.44501ZM3.97552 20.445C4.22131 20.9396 4.82149 21.1413 5.31607 20.8955C5.81065 20.6497 6.01234 20.0495 5.76655 19.555L3.97552 20.445ZM18.1045 19.555C17.8588 20.0495 18.0604 20.6497 18.555 20.8955C19.0496 21.1413 19.6498 20.9396 19.8956 20.445L18.1045 19.555ZM19.8956 3.55495C19.6498 3.06037 19.0496 2.85868 18.555 3.10447C18.0604 3.35025 17.8588 3.95043 18.1045 4.44501L19.8956 3.55495ZM4 12C4 9.28414 4.63611 6.71974 5.76655 4.44501L3.97552 3.55495C2.71071 6.10005 2 8.96845 2 12H4ZM5.76655 19.555C4.63611 17.2802 4 14.7158 4 12H2C2 15.0315 2.71072 17.8999 3.97552 20.445L5.76655 19.555ZM19.8711 12C19.8711 14.7158 19.235 17.2802 18.1045 19.555L19.8956 20.445C21.1604 17.8999 21.8711 15.0315 21.8711 12H19.8711ZM18.1045 4.44501C19.235 6.71974 19.8711 9.28414 19.8711 12H21.8711C21.8711 8.96845 21.1604 6.10005 19.8956 3.55495L18.1045 4.44501Z" fill="currentColor"/>
<path d="M10 9.5L12.5 7V17" stroke="currentColor" stroke-width="2" stroke-linecap="round" stroke-linejoin="round"/>
</svg>
