<svg width="24" height="24" viewBox="0 0 24 24" fill="none" xmlns="http://www.w3.org/2000/svg">
<path d="M5.76655 4.44501C6.01234 3.95043 5.81065 3.35025 5.31607 3.10447C4.82149 2.85868 4.22131 3.06037 3.97552 3.55495L5.76655 4.44501ZM3.97552 20.445C4.22131 20.9396 4.82149 21.1413 5.31607 20.8955C5.81065 20.6497 6.01234 20.0495 5.76655 19.555L3.97552 20.445ZM18.1045 19.555C17.8588 20.0495 18.0604 20.6497 18.555 20.8955C19.0496 21.1413 19.6498 20.9396 19.8956 20.445L18.1045 19.555ZM19.8956 3.55495C19.6498 3.06037 19.0496 2.85868 18.555 3.10447C18.0604 3.35025 17.8588 3.95043 18.1045 4.44501L19.8956 3.55495ZM4 12C4 9.28414 4.63611 6.71974 5.76655 4.44501L3.97552 3.55495C2.71071 6.10005 2 8.96845 2 12H4ZM5.76655 19.555C4.63611 17.2802 4 14.7158 4 12H2C2 15.0315 2.71072 17.8999 3.97552 20.445L5.76655 19.555ZM19.8711 12C19.8711 14.7158 19.235 17.2802 18.1045 19.555L19.8956 20.445C21.1604 17.8999 21.8711 15.0315 21.8711 12H19.8711ZM18.1045 4.44501C19.235 6.71974 19.8711 9.28414 19.8711 12H21.8711C21.8711 8.96845 21.1604 6.10005 19.8956 3.55495L18.1045 4.44501Z" fill="currentColor"/>
<path d="M15.0706 8.07199C14.9086 7.75772 14.5375 7.48039 14.0182 7.28567C13.499 7.09095 12.8626 6.99045 12.2138 7.00071H11.4996C10.8367 7.00071 10.2009 7.26407 9.73213 7.73284C9.26335 8.20162 9 8.83741 9 9.50036C9 10.1633 9.26335 10.7991 9.73213 11.2679C10.2009 11.7366 10.8367 12 11.4996 12H12.928C13.591 12 14.2267 12.2634 14.6955 12.7321C15.1643 13.2009 15.4277 13.8367 15.4277 14.4996C15.4277 15.1626 15.1643 15.7984 14.6955 16.2672C14.2267 16.7359 13.591 16.9993 12.928 16.9993H11.8567C11.208 17.0095 10.5716 16.909 10.0523 16.7143C9.5331 16.5196 9.16194 16.2423 9 15.928" stroke="currentColor" stroke-width="2" stroke-linecap="round" stroke-linejoin="round"/>
</svg>
